<?xml version="1.0" encoding="utf-8"?>
<!-- Generator: Adobe Illustrator 20.1.0, SVG Export Plug-In . SVG Version: 6.00 Build 0)  -->
<svg version="1.1" id="Layer_1" xmlns="http://www.w3.org/2000/svg" xmlns:xlink="http://www.w3.org/1999/xlink" x="0px" y="0px"
	 viewBox="0 0 32 32" style="enable-background:new 0 0 32 32;" xml:space="preserve">
<style type="text/css">
	.st0{display:none;fill:none;}
	.st1{opacity:0.3;}
	.st2{fill:#464646;}
</style>
<g id="Layer_1_1_">
	<path class="st0" d="M0,0"/>
</g>
<g id="Layer_2">
	<g>
		<g class="st1">
			<path class="st2" d="M16,31.6c-8.6,0-15.6-7-15.6-15.6S7.4,0.4,16,0.4s15.6,7,15.6,15.6S24.6,31.6,16,31.6z M16,3
				C8.8,3,3,8.8,3,16s5.8,13,13,13s13-5.8,13-13S23.2,3,16,3z"/>
		</g>
		<g>
			<path class="st2" d="M16,29C8.8,29,3,23.2,3,16S8.8,3,16,3s13,5.8,13,13S23.2,29,16,29z M16,5.5C10.2,5.5,5.5,10.2,5.5,16
				S10.2,26.5,16,26.5S26.5,21.8,26.5,16S21.8,5.5,16,5.5z"/>
		</g>
	</g>
</g>
</svg>
