<?xml version="1.0" encoding="utf-8"?>
<!-- Generator: Adobe Illustrator 19.2.1, SVG Export Plug-In . SVG Version: 6.00 Build 0)  -->
<svg version="1.1" xmlns="http://www.w3.org/2000/svg" xmlns:xlink="http://www.w3.org/1999/xlink" x="0px" y="0px"
	 viewBox="0 0 32 32" style="enable-background:new 0 0 32 32;" xml:space="preserve">
<style type="text/css">
	.st0{display:none;}
	.st1{display:inline;fill:none;enable-background:new    ;}
	.st2{fill:#0078D7;}
</style>
<g id="Layer_1" class="st0">
	
		<image style="display:inline;overflow:visible;" width="30" height="30" xlink:href="1E00B2CA106A4312.png"  transform="matrix(1 0 0 1 1 1)">
	</image>
	<path class="st1" d="z"/>
</g>
<g id="Layer_2">
	<g>
		<g>
			<path class="st2" d="M7.2,29.6c-2-0.3-5.3-1.2-5.3-4.9c0-5.1,6-5.2,6.3-5.2H12c0.2-0.6,0.5-1.2,0.8-1.8H8.2c-2.8,0-8,1.5-8,7
				c0,5.2,4.8,6.4,6.8,6.6c0.4,0.1,1.4,0.1,1.9,0.1c-0.3-0.5-0.4-1.1-0.4-1.8C8,29.6,7.4,29.6,7.2,29.6z"/>
			<path class="st2" d="M27.8,10.5c-0.7-0.1-1.5-0.1-2.4,0.1c0,0.1,0,0.2-0.1,0.2c-0.4,0.7-0.7,1.4-1,2.1c1.2-0.8,2.2-0.9,3.2-0.7
				c0,0,2.4,0.4,2.4,2.8c0,2.3-2.6,2.7-2.6,2.7H22c-0.2,0.5-0.9,1.8-0.9,1.8h6.3c1,0,4.3-1.1,4.3-4.5C31.7,11.7,28.8,10.6,27.8,10.5
				z"/>
		</g>
		<g>
			<path class="st2" d="M26.3,3.1c-0.2-0.2,0.5-1.2,0.2-1.4L25.2,1c-0.2-0.1-0.8,1-1.1,0.9c-0.6-0.1-1.2,0.1-1.7,0.5l-1.3-0.8
				c-0.2-0.1-0.4-0.1-0.6-0.1C20.3,1.6,20.1,1.8,20,2l-5.2,9.9c-0.2,0.4-0.1,0.8,0.3,1c0.4,0.2,0.8,0.1,1-0.3L21,3.4l0.6,0.4
				L11.5,23.8c-0.5,1.1-2.2,6.3-1.2,6.8l0.5,0.2c1.6,0.7,5-4.3,5.2-4.8L26.4,5.4C26.7,4.7,26.8,3.6,26.3,3.1z M11.4,29.5
				c-0.4-0.3,0.1-3.2,0.7-3.2c0,0,0.1,0,0.1,0c0.1,0,1.2,0.7,1.2,0.7l0.1,0.1C13.8,27.7,11.8,29.8,11.4,29.5z M25,4.7L14.7,25.4
				c0,0,0,0,0,0c-0.1,0.2-0.2,0.3-0.4,0.3c-0.2,0.1-0.3,0-0.5,0l-0.6-0.3c-0.3-0.2-0.5-0.6-0.3-0.9L23.2,3.8l0,0
				c0.2-0.3,0.6-0.4,0.9-0.3l0.6,0.3C25.1,4,25.2,4.4,25,4.7z"/>
		</g>
	</g>
</g>
</svg>
