<?xml version="1.0" encoding="utf-8"?>
<!-- Generator: Adobe Illustrator 20.1.0, SVG Export Plug-In . SVG Version: 6.00 Build 0)  -->
<svg version="1.1" id="Layer_1" xmlns="http://www.w3.org/2000/svg" xmlns:xlink="http://www.w3.org/1999/xlink" x="0px" y="0px"
	 viewBox="0 0 32 32" style="enable-background:new 0 0 32 32;" xml:space="preserve">
<style type="text/css">
	.st0{display:none;fill:none;}
	.st1{fill:#464646;}
</style>
<g id="Layer_1_1_">
	<path class="st0" d="M0,0"/>
</g>
<g id="Layer_2">
	<g>
		<path class="st1" d="M16,31.5L16,31.5l-2.9-1.7C8.3,26.5,1.7,19.5,1.7,16V4.5h4.8c0.6,0,1.6-0.7,2.6-1.3c1.8-1.2,4-2.7,6.9-2.7
			l0,0c2.9,0,5.1,1.5,6.9,2.7c1,0.7,2,1.3,2.6,1.3h4.8V16c0,3.5-6.6,10.5-11.4,13.7L16,31.5z M4.2,7v9c0,2.4,7.3,10.4,11.8,12.6
			c4.5-2.2,11.8-10.2,11.8-12.6V7h-2.3c-1.4,0-2.6-0.9-4-1.8c-1.6-1.1-3.4-2.3-5.5-2.3s-3.9,1.2-5.5,2.3C9.1,6.1,7.9,7,6.5,7H4.2z"
			/>
	</g>
</g>
</svg>
