<?xml version="1.0" encoding="utf-8"?>
<!-- Generator: Adobe Illustrator 20.1.0, SVG Export Plug-In . SVG Version: 6.00 Build 0)  -->
<svg version="1.1" id="Layer_1" xmlns="http://www.w3.org/2000/svg" xmlns:xlink="http://www.w3.org/1999/xlink" x="0px" y="0px"
	 viewBox="0 0 32 32" style="enable-background:new 0 0 32 32;" xml:space="preserve">
<style type="text/css">
	.st0{display:none;fill:none;}
	.st1{fill:#464646;}
</style>
<g id="Layer_1_1_">
	<path class="st0" d="M0,0"/>
</g>
<g id="Layer_2">
	<g>
		<g>
			<path class="st1" d="M15.2,4.9c-3.5,0-6.4,2.9-6.4,6.4c0,2.7,1.7,5,4.1,5.9v-1.9c-1.4-0.8-2.3-2.3-2.3-4c0-2.6,2.1-4.6,4.6-4.6
				s4.6,2.1,4.6,4.6c0,1.6-0.8,3-2,3.8v2c2.2-1,3.7-3.2,3.7-5.8C21.5,7.8,18.7,4.9,15.2,4.9z"/>
		</g>
		<g>
			<path class="st1" d="M29,1H3C2,1,1.1,1.9,1.1,2.9v16.7c0,1,0.8,1.9,1.9,1.9h6.5v-1.8H3c-0.1,0-0.1-0.1-0.1-0.1V2.9
				C2.9,2.8,3,2.8,3,2.8h26c0.1,0,0.1,0.1,0.1,0.1v16.7c0,0.1-0.1,0.1-0.1,0.1h-4.4v1.8H29c1,0,1.9-0.8,1.9-1.9V2.9
				C30.9,1.9,30.1,1,29,1z"/>
		</g>
		<g>
			<path class="st1" d="M17,31c-3.5,0-8.2-2.3-8.2-6.4c0-0.7,0-3.6,0.3-4.9s1.8-2.1,3-2c0.1,0,0.2,0,0.4,0.1c-0.1-5.3,0-7.2,0.3-7.9
				c0.4-0.9,1.3-1.5,2.4-1.5c1.2-0.1,2.5,0.7,2.6,1.5c0.1,0.5,0.1,4.2,0.2,5.5c0.2-0.1,0.4-0.1,0.7-0.1c3.9,0.6,6.1,1.9,6.4,3.8
				c0.2,1.2,0.3,3.1-0.1,4.7l0,0C23.9,28.3,20.9,31,17,31z M11.9,19.5c-0.1,0-0.3,0-0.6,0.1s-0.5,0.3-0.5,0.5
				c-0.2,0.8-0.3,3.1-0.3,4.5c0,3.1,4.4,4.6,6.5,4.6c4.5,0,6-4.5,6.3-5.9l0,0c0.3-1.2,0.2-2.8,0-3.9c-0.2-1-2.1-2-5-2.5
				c-0.4,0-0.2,0.1-0.3,0.2c-0.1,0.8,0.2,1.5-0.3,1.6h-1.6l0,0v-2.9c0,0,0.1-4.8,0-5.3c-0.1-0.2-0.6-0.5-1-0.5
				c-0.3,0-0.8,0.3-0.9,0.6c-0.1,0.7,0,7.4,0,7.4s0,2.6,0,2.8c0,1.2-0.1,1.7-1,1.7l0,0c-0.9,0-0.8-0.8-0.8-3.1
				C12.3,19.5,12,19.5,11.9,19.5z M18.4,17L18.4,17z"/>
		</g>
	</g>
</g>
</svg>
