<svg id="Layer_2" data-name="Layer 2" xmlns="http://www.w3.org/2000/svg" viewBox="0 0 52 32"><defs><style>.cls-1{fill:#0078d7;}</style></defs><title>Devices_Compete_4kIcon_Blue</title><path class="cls-1" d="M14.7,20.7V7.22A88.5,88.5,0,0,1,10,14.81c-1.61,2.28-3,4.08-4.46,5.79H14.7Zm5-20.51V20.7h3.8L25.43,25h-5.7v6.93h-5V25H.36V20.7A112.27,112.27,0,0,0,8.72,10,56.59,56.59,0,0,0,14.51,0h5.22Z"/><polygon class="cls-1" points="44.23 0.19 33.6 13.77 32.65 15.19 32.65 15.19 32.65 0.19 27.33 0.19 27.33 32 32.65 32 32.65 16.43 32.65 16.43 33.6 17.85 44.52 32 51.64 32 37.87 15.29 50.69 0.19 44.23 0.19"/></svg>