<svg id="Layer_3" data-name="Layer 3" xmlns="http://www.w3.org/2000/svg" viewBox="0 0 36 32"><defs><style>.cls-1{fill:#0078d7;}</style></defs><title>Devices_Compete_MRIcon_Blue</title><path class="cls-1" d="M19.73,6.83H16.36a1.15,1.15,0,1,1,0-2.3h3.38a1.15,1.15,0,1,1,0,2.3Z"/><path class="cls-1" d="M18.09,32c-6,0-9.59-5.31-9.74-5.54a1.15,1.15,0,0,1,1.92-1.26h0s3,4.5,7.82,4.5,7.61-4,7.81-4.3a1.15,1.15,0,0,1,2.17.72C27.88,26.92,24,32,18.09,32Zm7.76-6.45h0Z"/><path class="cls-1" d="M10.68,19.21a11,11,0,0,1-5-1.19A9.54,9.54,0,0,1,.66,10.58C.51,9.36.09,5.38.75,3.95,1.84,1.23,4.59,0,18,0S34.16,1.23,35.27,4c.64,1.49.22,5.39.07,6.55a9.43,9.43,0,0,1-4.85,7.39c-2.87,1.55-6.3,1.48-7.68.83a7.86,7.86,0,0,1-1.9-1.41A4.41,4.41,0,0,0,18,15.8a4.66,4.66,0,0,0-3,1.62,8,8,0,0,1-1.76,1.34A6,6,0,0,1,10.68,19.21Zm7.41-5.7a6.54,6.54,0,0,1,4.37,2.16,6.16,6.16,0,0,0,1.33,1,8,8,0,0,0,5.61-.77,7.18,7.18,0,0,0,3.66-5.68c.26-2.07.35-4.73.08-5.37C32.62,3.56,31,2.3,18,2.3S3.38,3.56,2.86,4.85a17.75,17.75,0,0,0,.07,5.41A7.28,7.28,0,0,0,6.77,16a7.86,7.86,0,0,0,5.41.73,6.41,6.41,0,0,0,1.24-1,6.82,6.82,0,0,1,4.48-2.22h.19Z"/></svg>