<svg id="Layer_1" data-name="Layer 1" xmlns="http://www.w3.org/2000/svg" viewBox="0 0 50 50"><defs><style>.cls-1{fill:#2f2f2f;}</style></defs><title>Prefooter_Vectors</title><path class="cls-1" d="M40.4,16.09a14.41,14.41,0,0,1,1.11,3.24,16.2,16.2,0,0,1,.37,3.42,15.54,15.54,0,0,1-.63,4.44A15.84,15.84,0,0,1,32.88,37V38.5H21.63v2.25h4.5V43H14.88V40.75h4.5V38.5H8.13V22.75h2.25a15.5,15.5,0,0,1,.56-4.19,15.78,15.78,0,0,1,11-11,15.86,15.86,0,0,1,8.62.07,15.9,15.9,0,0,1,4,1.8,15.55,15.55,0,0,1,3.34,2.84A15.91,15.91,0,0,1,40.36,16h0Zm-30,20.16H30.63V25H10.38Zm3-18a13.36,13.36,0,0,0-.77,4.5h6.75q0-1.14.07-2.26t.21-2.24Zm8.79-8.42a13.49,13.49,0,0,0-4.46,2.35A13.3,13.3,0,0,0,14.44,16H20a26.31,26.31,0,0,1,.82-3.19A13.65,13.65,0,0,1,22.19,9.83Zm8.44,12.92q0-1.14-.07-2.26t-.21-2.24H21.91q-.14,1.13-.21,2.24t-.07,2.26ZM26.13,9.34a1.53,1.53,0,0,0-1,.38,4.22,4.22,0,0,0-.86,1,9,9,0,0,0-.72,1.36q-.33.76-.58,1.49t-.43,1.39q-.18.65-.26,1.05H30q-.09-.4-.26-1.05t-.43-1.39q-.25-.74-.58-1.49A9,9,0,0,0,28,10.7a4.22,4.22,0,0,0-.86-1A1.53,1.53,0,0,0,26.13,9.34ZM37.81,16a13.3,13.3,0,0,0-3.29-3.82,13.49,13.49,0,0,0-4.46-2.35,13.65,13.65,0,0,1,1.36,3A26.31,26.31,0,0,1,32.24,16Zm1.81,6.75a13.36,13.36,0,0,0-.77-4.5H32.59a36.1,36.1,0,0,1,.28,4.48v4.52h6A13.36,13.36,0,0,0,39.63,22.75ZM32.88,34.44a13.74,13.74,0,0,0,2.8-2.14,13.36,13.36,0,0,0,2.15-2.79h-5Z"/></svg>