<svg id="Layer_1" data-name="Layer 1" xmlns="http://www.w3.org/2000/svg" viewBox="0 0 50 50"><defs><style>.cls-1{fill:#2f2f2f;}</style></defs><title>Prefooter_Vectors</title><path class="cls-1" d="M36.32,16.83q.15.67.24,1.34a10.69,10.69,0,0,1,.09,1.36,11.07,11.07,0,0,1-.93,4.6A13.14,13.14,0,0,1,33,28a10.62,10.62,0,0,0-2.18,3.14,9,9,0,0,0-.76,3.73v4.38a3.23,3.23,0,0,1-.26,1.28,3.27,3.27,0,0,1-1.74,1.74,3.23,3.23,0,0,1-1.28.26H22.43a3.23,3.23,0,0,1-1.28-.26A3.27,3.27,0,0,1,19.4,40.5a3.23,3.23,0,0,1-.26-1.28V34.84a9,9,0,0,0-.76-3.73A10.64,10.64,0,0,0,16.21,28a13.1,13.1,0,0,1-2.69-3.84,11.07,11.07,0,0,1-.93-4.6,11.93,11.93,0,0,1,1.64-6.07,12.28,12.28,0,0,1,4.32-4.32A11.94,11.94,0,0,1,33,10.9l-1.54,1.56a9.85,9.85,0,0,0-3.14-2.05,9.64,9.64,0,0,0-3.67-.72,9.53,9.53,0,0,0-3.83.78,9.91,9.91,0,0,0-5.24,5.24,9.52,9.52,0,0,0-.78,3.83,9,9,0,0,0,.76,3.73,10.61,10.61,0,0,0,2.18,3.14,12.76,12.76,0,0,1,2.42,3.35,11.4,11.4,0,0,1,1.09,4H28a11.77,11.77,0,0,1,1.09-4,12.4,12.4,0,0,1,2.43-3.35,10.63,10.63,0,0,0,2.18-3.14,9,9,0,0,0,.76-3.73,2.87,2.87,0,0,0,0-.38c0-.12,0-.25-.06-.38ZM24.62,22.37,35.88,11.11l1.54,1.54-12.8,12.8-5.69-5.69,1.54-1.54ZM26.8,40.31a1.11,1.11,0,0,0,1.09-1.09V35.94H21.33v3.28a1.11,1.11,0,0,0,1.09,1.09Z"/></svg>