<svg id="Layer_1" data-name="Layer 1" xmlns="http://www.w3.org/2000/svg" viewBox="0 0 50 50"><defs><style>.cls-1{fill:#2f2f2f;}</style></defs><title>Prefooter_Vectors</title><path class="cls-1" d="M23.87,30.2A12.14,12.14,0,0,1,31,37.82a11.65,11.65,0,0,1,.56,3.59V42.5H29.38V41.41a9.54,9.54,0,0,0-.78-3.83,9.91,9.91,0,0,0-5.24-5.24,9.81,9.81,0,0,0-7.66,0,9.91,9.91,0,0,0-5.24,5.24,9.52,9.52,0,0,0-.78,3.83V42.5H7.5V41.41a11.63,11.63,0,0,1,.56-3.59,12.24,12.24,0,0,1,1.56-3.2,12.19,12.19,0,0,1,5.57-4.43A7.44,7.44,0,0,1,13.81,29a7.71,7.71,0,0,1-1-1.51,7.85,7.85,0,0,1-.66-1.71,7.56,7.56,0,0,1,.38-4.82,7.72,7.72,0,0,1,4.07-4.07,7.64,7.64,0,0,1,6,0,7.72,7.72,0,0,1,4.07,4.07A7.56,7.56,0,0,1,27,25.74a7.9,7.9,0,0,1-.66,1.71,7.76,7.76,0,0,1-1,1.51A7.44,7.44,0,0,1,23.87,30.2Zm-4.34-.82a5.29,5.29,0,0,0,2.12-.43,5.51,5.51,0,0,0,1.73-1.17A5.62,5.62,0,0,0,24.56,26,5.28,5.28,0,0,0,25,23.91a5.22,5.22,0,0,0-.44-2.12,5.61,5.61,0,0,0-2.91-2.91,5.22,5.22,0,0,0-2.12-.44,5.28,5.28,0,0,0-2.13.44,5.62,5.62,0,0,0-1.74,1.18,5.51,5.51,0,0,0-1.17,1.73,5.29,5.29,0,0,0-.43,2.12A5.35,5.35,0,0,0,14.49,26a5.44,5.44,0,0,0,2.91,2.91A5.35,5.35,0,0,0,19.53,29.38ZM42.5,7.5V25H38.13l-6.56,6.56V25H29.38V22.81h4.38v3.47l3.47-3.47h3.09V9.69H18.44v3.93q-.55.07-1.1.18a7.88,7.88,0,0,0-1.08.3V7.5Z"/></svg>