<svg id="Layer_1" data-name="Layer 1" xmlns="http://www.w3.org/2000/svg" viewBox="0 0 50 50"><defs><style>.cls-1{fill:#2f2f2f;}</style></defs><title>Prefooter_Vectors</title><path class="cls-1" d="M38.48,16.4q.58,0,1.4-.07t1.7-.08a15.6,15.6,0,0,1,1.77.08,4.86,4.86,0,0,1,1.58.41,2.86,2.86,0,0,1,1.13.93,2.65,2.65,0,0,1,.44,1.59V39.33a2.78,2.78,0,0,1-.22,1.12A2.92,2.92,0,0,1,44.75,42a2.78,2.78,0,0,1-1.12.22H6.37A2.78,2.78,0,0,1,5.25,42a2.92,2.92,0,0,1-1.52-1.52,2.78,2.78,0,0,1-.22-1.12V19.27a2.78,2.78,0,0,1,.22-1.12,2.92,2.92,0,0,1,1.52-1.52,2.78,2.78,0,0,1,1.12-.22H25.85l7.28-7.28a4.52,4.52,0,0,1,1.44-1,4.34,4.34,0,0,1,1.71-.35A4.2,4.2,0,0,1,38,8.16a4.58,4.58,0,0,1,2.37,2.38,4.28,4.28,0,0,1,.36,1.74,4.44,4.44,0,0,1-.17,1.29,4.09,4.09,0,0,1-.47,1,6.15,6.15,0,0,1-.72.91Q39,15.93,38.48,16.4Zm5.15,2.87h-8L20.54,34.36,12.1,36.47,14.21,28,23,19.27H6.37V39.33H43.63Zm-7.35-8.6a1.53,1.53,0,0,0-1.12.47L16.8,29.5l-.76,3,3-.76L34.32,16.53s0-.07,0-.11.07-.05.1,0q.27-.27.85-.76t1.16-1.06a9.1,9.1,0,0,0,1-1.18,2,2,0,0,0,.44-1.12,1.54,1.54,0,0,0-.48-1.14A1.57,1.57,0,0,0,36.29,10.67Z"/></svg>